<?xml version="1.0" encoding="utf-8"?>
<!-- Generator: Adobe Illustrator 16.0.0, SVG Export Plug-In . SVG Version: 6.00 Build 0)  -->
<!DOCTYPE svg PUBLIC "-//W3C//DTD SVG 1.1//EN" "http://www.w3.org/Graphics/SVG/1.1/DTD/svg11.dtd">
<svg version="1.1" id="Line" xmlns="http://www.w3.org/2000/svg" xmlns:xlink="http://www.w3.org/1999/xlink" x="0px" y="0px"
	 width="512px" height="512px" viewBox="0 0 512 512" enable-background="new 0 0 512 512" xml:space="preserve">
<g>
	<path fill="#243B45" d="M460.5,31h-396c-14.912,0-27,12.088-27,27v72c0,14.912,12.088,27,27,27h59.274l24.363,24.363
		c3.514,3.514,9.211,3.514,12.726,0L185.226,157H460.5c14.912,0,27-12.088,27-27V58C487.5,43.088,475.412,31,460.5,31z M469.5,130
		c0,4.971-4.029,9-9,9h-279c-2.387,0-4.676,0.949-6.363,2.637L154.5,162.274l-20.637-20.637c-1.687-1.688-3.976-2.636-6.363-2.637
		h-63c-4.971,0-9-4.029-9-9V58c0-4.971,4.029-9,9-9h396c4.971,0,9,4.029,9,9V130z"/>
	<path fill="#243B45" d="M424.5,85h-324c-4.971,0-9,4.029-9,9s4.029,9,9,9h324c4.971,0,9-4.029,9-9S429.471,85,424.5,85z"/>
	<path fill="#243B45" d="M478.5,463h-18v-63c-0.039-36.072-21.585-68.646-54.765-82.8c28.844-19.46,36.449-58.617,16.99-87.461
		c-19.46-28.843-58.617-36.45-87.461-16.99c-28.844,19.46-36.45,58.618-16.99,87.46c4.521,6.701,10.29,12.47,16.99,16.991
		c-33.181,14.15-54.728,46.727-54.765,82.8v63h-36v-63c-0.037-36.073-21.583-68.649-54.765-82.8
		c28.843-19.46,36.45-58.617,16.991-87.461c-19.46-28.843-58.617-36.45-87.46-16.99c-28.843,19.46-36.45,58.616-16.99,87.46
		c4.521,6.701,10.289,12.47,16.99,16.991C86.083,331.351,64.537,363.927,64.5,400v63h-18c-4.971,0-9,4.029-9,9s4.029,9,9,9h432
		c4.971,0,9-4.029,9-9S483.471,463,478.5,463z M325.5,265c0-24.853,20.146-45,45-45s45,20.147,45,45c0,24.854-20.146,45-45,45
		C345.66,309.971,325.529,289.84,325.5,265z M298.5,400c0-39.764,32.236-72,72-72c39.765,0,72,32.236,72,72v63h-144V400z M109.5,265
		c0-24.853,20.147-45,45-45s45,20.147,45,45c0,24.854-20.147,45-45,45C129.659,309.971,109.53,289.84,109.5,265z M82.5,400
		c0-39.764,32.235-72,72-72s72,32.236,72,72v63h-144V400z"/>
</g>
</svg>
