<?xml version="1.0" encoding="utf-8"?>
<!-- Generator: Adobe Illustrator 16.0.0, SVG Export Plug-In . SVG Version: 6.00 Build 0)  -->
<!DOCTYPE svg PUBLIC "-//W3C//DTD SVG 1.1//EN" "http://www.w3.org/Graphics/SVG/1.1/DTD/svg11.dtd">
<svg version="1.1" id="Capa_1" xmlns="http://www.w3.org/2000/svg" xmlns:xlink="http://www.w3.org/1999/xlink" x="0px" y="0px"
	 width="512px" height="512px" viewBox="0 0 512 512" enable-background="new 0 0 512 512" xml:space="preserve">
<g>
	<g id="Page-1_5_">
		<g id="_x30_06---Draw-Blueprint">
			<path id="Shape_17_" fill="#243B45" d="M511.997,50.842c0.031-6.954-2.735-13.627-7.68-18.518L479.674,7.68
				C474.807,2.76,468.172-0.006,461.25,0h-0.085c-6.879,0.004-13.468,2.771-18.287,7.68L331.093,119.466H110.935V25.6
				c0-14.139-11.462-25.6-25.6-25.6H68.268C30.583,0.042,0.044,30.582,0.001,68.266v377.606
				c2.136,37.397,33.285,66.513,70.741,66.124h415.656c14.138,0,25.599-11.462,25.599-25.6V145.066
				c0-14.138-11.461-25.6-25.599-25.6h-32.427l50.347-50.346C509.217,64.297,511.982,57.716,511.997,50.842L511.997,50.842z
				 M305.322,213.332c-1.807,0.246-3.622-0.389-4.881-1.707c-1.271-1.262-1.898-3.032-1.707-4.813l3.234-29.013
				c0.136-0.606,0.307-1.206,0.512-1.792l33.612,33.612c-0.554,0.12-1.058,0.393-1.638,0.461L305.322,213.332z M350.027,199.396
				l-37.342-37.35l93.014-93.012l37.323,37.316L350.027,199.396z M417.73,56.959l12.655-12.646l37.308,37.315l-12.646,12.655
				L417.73,56.959z M17.068,68.266c0.028-28.265,22.935-51.172,51.199-51.2h17.067c4.712,0,8.534,3.82,8.534,8.533v341.33
				c0,4.713-3.821,8.533-8.534,8.533H68.268c-19.604-0.006-38.26,8.433-51.199,23.158V68.266z M486.398,136.532
				c4.712,0,8.533,3.82,8.533,8.534v341.331c0,4.713-3.82,8.533-8.533,8.533H70.743c-28.17,0.474-51.77-21.213-53.674-49.322v-1.878
				c0.028-28.265,22.935-51.171,51.199-51.199h17.067c14.138,0,25.599-11.462,25.599-25.6V136.532h203.092l-19.379,19.379
				c-5.41,5.331-8.813,12.366-9.635,19.917l-3.233,29.073c-0.267,2.835,0.003,5.694,0.794,8.431H136.534
				c-4.712,0-8.534,3.82-8.534,8.534c0,4.712,3.82,8.533,8.534,8.533h25.6v230.398c0,4.713,3.821,8.534,8.534,8.534
				c4.713,0,8.534-3.82,8.534-8.534V341.33h93.865v68.267h-59.733c-4.712,0-8.533,3.82-8.533,8.532c0,4.713,3.82,8.534,8.533,8.534
				h170.666c9.426,0,17.066-7.641,17.066-17.066V281.598c0-4.712-3.82-8.533-8.533-8.533c-4.712,0-8.533,3.82-8.533,8.533v42.666
				H179.201v-93.865h125.507c0.832,0.002,1.665-0.044,2.492-0.136l29.157-3.319c7.4-0.84,14.309-4.128,19.627-9.344l80.964-81.065
				L486.398,136.532L486.398,136.532z M383.999,341.33v68.267h-93.866V341.33H383.999z M492.286,57.019l-12.527,12.535
				l-37.308-37.307l12.535-12.535c1.641-1.684,3.889-2.637,6.238-2.646c2.393,0.006,4.683,0.972,6.357,2.68l24.679,24.627
				c1.716,1.69,2.679,4,2.671,6.408C494.924,53.132,493.971,55.38,492.286,57.019L492.286,57.019z"/>
		</g>
	</g>
</g>
</svg>
