<?xml version="1.0" encoding="utf-8"?>
<!-- Generator: Adobe Illustrator 16.0.0, SVG Export Plug-In . SVG Version: 6.00 Build 0)  -->
<!DOCTYPE svg PUBLIC "-//W3C//DTD SVG 1.1//EN" "http://www.w3.org/Graphics/SVG/1.1/DTD/svg11.dtd">
<svg version="1.1" id="Capa_1" xmlns="http://www.w3.org/2000/svg" xmlns:xlink="http://www.w3.org/1999/xlink" x="0px" y="0px"
	 width="512px" height="512px" viewBox="0 0 512 512" enable-background="new 0 0 512 512" xml:space="preserve">
<g>
	<path fill="#243B45" d="M496.5,414.167H180.354c-3.62-43.84-38.679-78.899-82.52-82.521V15.501c0-8.547-6.953-15.5-15.5-15.5H15.5
		C6.953,0.001,0,6.954,0,15.501V131.5c0,4.143,3.358,7.5,7.5,7.5s7.5-3.357,7.5-7.5V15.501c0-0.275,0.224-0.5,0.5-0.5h66.834
		c0.276,0,0.5,0.225,0.5,0.5v17.634H57.2c-4.142,0-7.5,3.357-7.5,7.5c0,4.143,3.358,7.5,7.5,7.5h25.633v18.132h-8.808
		c-4.142,0-7.5,3.357-7.5,7.5s3.358,7.5,7.5,7.5h8.808v18.132H57.2c-4.142,0-7.5,3.357-7.5,7.5s3.358,7.5,7.5,7.5h25.633v18.132
		h-8.808c-4.142,0-7.5,3.357-7.5,7.5c0,4.143,3.358,7.5,7.5,7.5h8.808v18.131H57.2c-4.142,0-7.5,3.357-7.5,7.5s3.358,7.5,7.5,7.5
		h25.633v18.132h-8.808c-4.142,0-7.5,3.357-7.5,7.5s3.358,7.5,7.5,7.5h8.808v18.138H57.2c-4.142,0-7.5,3.357-7.5,7.5
		s3.358,7.5,7.5,7.5h25.633v18.13h-8.808c-4.142,0-7.5,3.357-7.5,7.5c0,4.144,3.358,7.5,7.5,7.5h8.808V298.2H57.2
		c-4.142,0-7.5,3.356-7.5,7.5c0,4.143,3.358,7.5,7.5,7.5h25.633v18.135H15V121.896c0-4.143-3.358-7.5-7.5-7.5s-7.5,3.357-7.5,7.5
		v366.038C0,501.204,10.797,512,24.067,512h149.1H496.5c8.547,0,15.5-6.953,15.5-15.5v-66.833
		C512,421.12,505.047,414.167,496.5,414.167z M15,487.934V346.333h75.334c41.539,0,75.333,33.794,75.333,75.333v0.001V497h-141.6
		C19.068,497,15,492.933,15,487.934L15,487.934z M497,496.5c0,0.275-0.224,0.5-0.5,0.5H180.667v-67.833h18.134V454.8
		c0,4.144,3.358,7.5,7.5,7.5c4.142,0,7.5-3.356,7.5-7.5v-25.633h18.132v8.808c0,4.144,3.358,7.5,7.5,7.5s7.5-3.356,7.5-7.5v-8.808
		h18.131V454.8c0,4.144,3.357,7.5,7.5,7.5c4.142,0,7.5-3.356,7.5-7.5v-25.633h18.132v8.808c0,4.144,3.357,7.5,7.5,7.5
		c4.142,0,7.5-3.356,7.5-7.5v-8.808h18.131V454.8c0,4.144,3.357,7.5,7.5,7.5c4.142,0,7.5-3.356,7.5-7.5v-25.633h18.132v8.808
		c0,4.144,3.358,7.5,7.5,7.5s7.5-3.356,7.5-7.5v-8.808h18.138V454.8c0,4.144,3.358,7.5,7.5,7.5c4.143,0,7.5-3.356,7.5-7.5v-25.633
		h18.13v8.808c0,4.144,3.358,7.5,7.5,7.5c4.143,0,7.5-3.356,7.5-7.5v-8.808h18.138V454.8c0,4.144,3.357,7.5,7.5,7.5
		c4.142,0,7.5-3.356,7.5-7.5v-25.633H496.5c0.276,0,0.5,0.225,0.5,0.5V496.5z"/>
	<path fill="#243B45" d="M90.334,397.6c-13.271,0-24.066,10.797-24.066,24.066c0,13.271,10.796,24.066,24.066,24.066
		s24.066-10.796,24.066-24.066C114.4,408.396,103.604,397.6,90.334,397.6z M90.334,430.732c-4.999,0-9.066-4.067-9.066-9.066
		s4.067-9.066,9.066-9.066s9.066,4.067,9.066,9.066S95.333,430.732,90.334,430.732z"/>
	<path fill="#243B45" d="M90.334,364.467c-31.54,0-57.2,25.659-57.2,57.199s25.66,57.2,57.2,57.2s57.2-25.66,57.2-57.2
		C147.533,390.126,121.874,364.467,90.334,364.467z M90.334,463.866c-23.269,0-42.2-18.932-42.2-42.2
		c0-23.268,18.931-42.199,42.2-42.199s42.2,18.932,42.2,42.199C132.533,444.935,113.603,463.866,90.334,463.866z"/>
	<path fill="#243B45" d="M214.864,143.605c1.772,0,3.551-0.624,4.98-1.895l21.447-19.063c3.096-2.752,3.375-7.492,0.623-10.588
		c-2.752-3.096-7.493-3.377-10.588-0.623L209.878,130.5c-3.096,2.752-3.374,7.492-0.622,10.588
		C210.737,142.755,212.795,143.605,214.864,143.605L214.864,143.605z"/>
	<path fill="#243B45" d="M261.542,102.113c1.772,0,3.551-0.624,4.979-1.894l21.447-19.063c3.096-2.752,3.374-7.492,0.622-10.588
		c-2.752-3.096-7.493-3.377-10.588-0.623l-21.446,19.063c-3.097,2.752-3.375,7.492-0.624,10.588
		C257.415,101.263,259.473,102.113,261.542,102.113z"/>
	<path fill="#243B45" d="M173.167,180.667h17.603c4.142,0,7.5-3.357,7.5-7.5c0-3.576-2.503-6.568-5.853-7.318
		c2.005-2.787,1.888-6.686-0.488-9.358c-2.752-3.096-7.492-3.378-10.588-0.623l-13.156,11.694c-2.327,2.068-3.134,5.36-2.027,8.271
		C167.263,178.743,170.053,180.667,173.167,180.667z"/>
	<path fill="#243B45" d="M271.04,173.167c0-4.143-3.358-7.5-7.5-7.5h-32.807c-4.142,0-7.5,3.357-7.5,7.5s3.358,7.5,7.5,7.5h32.807
		C267.682,180.667,271.04,177.31,271.04,173.167z"/>
	<path fill="#243B45" d="M300.523,362.9h14.243v18.133H305.7c-4.143,0-7.5,3.357-7.5,7.5s3.357,7.5,7.5,7.5h33.133
		c4.142,0,7.5-3.357,7.5-7.5s-3.358-7.5-7.5-7.5h-9.067V362.9h35.483c4.142,0,7.5-3.357,7.5-7.5c0-4.144-3.358-7.5-7.5-7.5h-35.483
		V180.667h100.968V347.9H395.25c-4.142,0-7.5,3.356-7.5,7.5c0,4.143,3.358,7.5,7.5,7.5h42.983c4.142,0,7.5-3.357,7.5-7.5V180.667
		h25.633c3.114,0,5.903-1.924,7.01-4.835c1.107-2.91,0.3-6.202-2.027-8.271L329.767,37.265V15h9.066c4.142,0,7.5-3.357,7.5-7.5
		s-3.358-7.5-7.5-7.5H305.7c-4.143,0-7.5,3.357-7.5,7.5s3.357,7.5,7.5,7.5h9.066v22.264l-10.639,9.457
		c-3.096,2.752-3.375,7.492-0.622,10.588c1.482,1.668,3.54,2.517,5.608,2.517c1.771,0,3.551-0.625,4.979-1.895l0.673-0.599v108.333
		h-10.102c-4.142,0-7.5,3.357-7.5,7.5s3.358,7.5,7.5,7.5h10.102V347.9h-14.243c-4.143,0-7.5,3.356-7.5,7.5
		C293.023,359.543,296.381,362.9,300.523,362.9L300.523,362.9z M451.64,165.667H329.767V57.335L451.64,165.667z"/>
	<path fill="#243B45" d="M254.009,362.9h21.304c4.143,0,7.5-3.357,7.5-7.5c0-4.144-3.357-7.5-7.5-7.5h-21.304
		c-4.142,0-7.5,3.356-7.5,7.5C246.509,359.543,249.866,362.9,254.009,362.9L254.009,362.9z"/>
	<path fill="#243B45" d="M206.3,362.9h21.744c4.142,0,7.5-3.357,7.5-7.5c0-4.144-3.358-7.5-7.5-7.5H213.8v-14.244
		c0-4.143-3.358-7.5-7.5-7.5c-4.142,0-7.5,3.357-7.5,7.5V355.4C198.8,359.543,202.158,362.9,206.3,362.9z"/>
	<path fill="#243B45" d="M206.3,301.54c4.142,0,7.5-3.356,7.5-7.5v-33.479c0-4.143-3.358-7.5-7.5-7.5c-4.142,0-7.5,3.357-7.5,7.5
		v33.479C198.8,298.184,202.158,301.54,206.3,301.54z"/>
	<path fill="#243B45" d="M206.3,227.261c4.142,0,7.5-3.357,7.5-7.5v-21.744c0-4.143-3.358-7.5-7.5-7.5c-4.142,0-7.5,3.357-7.5,7.5
		v21.744C198.8,223.903,202.158,227.261,206.3,227.261z"/>
</g>
</svg>
