<?xml version="1.0" encoding="utf-8"?>
<!-- Generator: Adobe Illustrator 16.0.0, SVG Export Plug-In . SVG Version: 6.00 Build 0)  -->
<!DOCTYPE svg PUBLIC "-//W3C//DTD SVG 1.1//EN" "http://www.w3.org/Graphics/SVG/1.1/DTD/svg11.dtd">
<svg version="1.1" id="圖層_1" xmlns="http://www.w3.org/2000/svg" xmlns:xlink="http://www.w3.org/1999/xlink" x="0px" y="0px"
	 width="512px" height="512px" viewBox="0 0 512 512" enable-background="new 0 0 512 512" xml:space="preserve">
<g>
	<path fill="#243B45" d="M464,40H48c-4.418,0-8,3.582-8,8v256c0,4.418,3.582,8,8,8h416c4.418,0,8-3.582,8-8V48
		C472,43.582,468.418,40,464,40z M223.864,296H87.709l64.616-90.188L223.864,296z M203.706,244.842l84.636-119.485L422.853,296
		H244.286L203.706,244.842z M456,296h-12.774L294.283,107.048c-2.735-3.47-7.766-4.065-11.235-1.331
		c-0.603,0.475-1.133,1.033-1.575,1.659l-88.125,124.408l-35.08-44.225c-2.746-3.462-7.777-4.042-11.239-1.296
		c-0.583,0.462-1.099,1.003-1.532,1.608L68.027,296H56V56h400V296z"/>
	<path fill="#243B45" d="M496,8H16c-4.418,0-8,3.582-8,8v416c0,4.418,3.582,8,8,8h308.36c15.46,48.401,67.229,75.104,115.631,59.645
		c36.304-11.596,61.699-44.375,63.858-82.424c0.114-0.396,0.165-0.809,0.15-1.221V16C504,11.582,500.418,8,496,8L496,8z
		 M455.74,474.09c10.002-8.683,11.071-23.83,2.388-33.833c-8.683-10.002-23.83-11.071-33.833-2.388
		c-0.421,0.365-0.83,0.746-1.225,1.141l-33.15-13.26c1.372-3.067,2.081-6.39,2.08-9.75c0.001-1.114-0.079-2.228-0.24-3.33
		l31.891-19.13c9.698,9.019,24.871,8.468,33.891-1.23c9.019-9.698,8.468-24.872-1.231-33.891c-9.698-9.019-24.871-8.468-33.89,1.23
		c-4.131,4.442-6.425,10.284-6.42,16.351c-0.001,1.114,0.079,2.228,0.24,3.33l-31.891,19.13c-9.69-9.038-24.873-8.511-33.912,1.18
		c-9.038,9.69-8.51,24.874,1.181,33.912c7.217,6.731,17.819,8.357,26.722,4.099c0.768,0.769,1.683,1.374,2.69,1.779l35.1,14.04
		c-0.08,0.83-0.13,1.681-0.13,2.53c-0.01,13.245,10.721,23.99,23.966,24c3.364,0.002,6.69-0.703,9.765-2.07
		c-36.532,21.005-83.174,8.417-104.178-28.114c-21.004-36.532-8.417-83.174,28.115-104.178
		c36.531-21.004,83.173-8.417,104.177,28.114C497.474,407.892,487.896,451.359,455.74,474.09L455.74,474.09z M448,456
		c0,4.418-3.582,8-8,8s-8-3.582-8-8s3.582-8,8-8C444.416,448.006,447.994,451.584,448,456z M432,376c0-4.418,3.582-8,8-8
		s8,3.582,8,8s-3.582,8-8,8C435.584,383.994,432.006,380.416,432,376z M376,416c0,4.418-3.582,8-8,8s-8-3.582-8-8s3.582-8,8-8
		C372.416,408.006,375.994,411.584,376,416z M488,360.21c-28.589-41.987-85.803-52.849-127.79-24.261
		C335.047,353.083,319.991,381.558,320,412c0.001,4.013,0.262,8.021,0.78,12H24V24h464V360.21z"/>
	<path fill="#243B45" d="M160,160c22.091,0,40-17.909,40-40s-17.909-40-40-40s-40,17.909-40,40
		C120.025,142.081,137.919,159.975,160,160z M160,96c13.255,0,24,10.745,24,24s-10.745,24-24,24s-24-10.745-24-24
		C136.016,106.751,146.751,96.016,160,96z"/>
	<path fill="#243B45" d="M104,328H48c-4.418,0-8,3.582-8,8v64c0,4.418,3.582,8,8,8h56c4.418,0,8-3.582,8-8v-64
		C112,331.582,108.418,328,104,328z M96,392H56v-48h40V392z"/>
	<path fill="#243B45" d="M224,328h-88c-4.418,0-8,3.582-8,8s3.582,8,8,8h88c4.418,0,8-3.582,8-8S228.418,328,224,328z"/>
	<path fill="#243B45" d="M224,360h-88c-4.418,0-8,3.582-8,8s3.582,8,8,8h88c4.418,0,8-3.582,8-8S228.418,360,224,360z"/>
	<path fill="#243B45" d="M176,392h-40c-4.418,0-8,3.582-8,8s3.582,8,8,8h40c4.418,0,8-3.582,8-8S180.418,392,176,392z"/>
</g>
</svg>
