<?xml version="1.0" encoding="utf-8"?>
<!-- Generator: Adobe Illustrator 16.0.0, SVG Export Plug-In . SVG Version: 6.00 Build 0)  -->
<!DOCTYPE svg PUBLIC "-//W3C//DTD SVG 1.1//EN" "http://www.w3.org/Graphics/SVG/1.1/DTD/svg11.dtd">
<svg version="1.1" id="Layer_1_1_" xmlns="http://www.w3.org/2000/svg" xmlns:xlink="http://www.w3.org/1999/xlink" x="0px" y="0px"
	 width="512px" height="512px" viewBox="0 0 512 512" enable-background="new 0 0 512 512" xml:space="preserve">
<path fill="#243B45" d="M496,288h-88V104c0-2.121-0.844-4.156-2.344-5.656l-80-80c-1.5-1.5-3.535-2.344-5.656-2.344H24
	c-4.418,0-8,3.582-8,8v384c0,4.418,3.582,8,8,8h296v72c0,4.418,3.582,8,8,8h168c4.418,0,8-3.582,8-8V296
	C504,291.582,500.418,288,496,288z M320,296v104H32V32h284.688l64,64H328V56h-16v48c0,4.418,3.582,8,8,8h72v176h-64
	C323.582,288,320,291.582,320,296z M488,480H336V304h152V480z"/>
<path fill="#243B45" d="M360,384h24v16h-24V384z"/>
<path fill="#243B45" d="M400,384h24v16h-24V384z"/>
<path fill="#243B45" d="M440,384h24v16h-24V384z"/>
<path fill="#243B45" d="M360,416h24v16h-24V416z"/>
<path fill="#243B45" d="M400,416h24v16h-24V416z"/>
<path fill="#243B45" d="M440,416h24v16h-24V416z"/>
<path fill="#243B45" d="M360,448h24v16h-24V448z"/>
<path fill="#243B45" d="M400,448h24v16h-24V448z"/>
<path fill="#243B45" d="M440,448h24v16h-24V448z"/>
<path fill="#243B45" d="M360,368h104c4.418,0,8-3.582,8-8v-32c0-4.418-3.582-8-8-8H360c-4.418,0-8,3.582-8,8v32
	C352,364.418,355.582,368,360,368z M368,336h88v16h-88V336z"/>
<path fill="#243B45" d="M184.566,181.254L139.313,136l45.254-45.254c3.125-3.125,3.125-8.188,0-11.313
	C169.457,64.32,149.367,56,128,56s-41.457,8.32-56.566,23.434C56.32,94.543,48,114.633,48,136s8.32,41.457,23.434,56.566
	C86.543,207.68,106.633,216,128,216s41.457-8.32,56.566-23.434C187.691,189.441,187.691,184.379,184.566,181.254z M128,200
	c-17.094,0-33.164-6.656-45.254-18.746S64,153.094,64,136s6.656-33.164,18.746-45.254S110.906,72,128,72
	c14.398,0,28.07,4.723,39.25,13.438l-44.906,44.906c-3.125,3.125-3.125,8.188,0,11.313l44.906,44.906
	C156.07,195.277,142.398,200,128,200z"/>
<path fill="#243B45" d="M178.344,141.656l50.91,50.91c1.563,1.563,3.609,2.344,5.656,2.344s4.094-0.781,5.656-2.344
	C255.68,177.457,264,157.367,264,136s-8.32-41.457-23.434-56.566c-3.125-3.125-8.188-3.125-11.313,0l-50.91,50.91
	C175.219,133.469,175.219,138.531,178.344,141.656z M234.563,96.75C243.277,107.93,248,121.602,248,136s-4.723,28.07-13.438,39.25
	L195.313,136L234.563,96.75z"/>
<path fill="#243B45" d="M88,280h16c4.41,0,8,3.59,8,8h16c0-13.234-10.766-24-24-24v-16H88v16c-13.234,0-24,10.766-24,24v8
	c0,13.234,10.766,24,24,24h16c4.41,0,8,3.59,8,8v8c0,4.41-3.59,8-8,8H88c-4.41,0-8-3.59-8-8H64c0,13.234,10.766,24,24,24v16h16v-16
	c13.234,0,24-10.766,24-24v-8c0-13.234-10.766-24-24-24H88c-4.41,0-8-3.59-8-8v-8C80,283.59,83.59,280,88,280z"/>
<path fill="#243B45" d="M280,296c0-4.418-3.582-8-8-8h-24v-16c0-4.418-3.582-8-8-8h-32c-4.418,0-8,3.582-8,8v40h-24
	c-4.418,0-8,3.582-8,8v40h-16v16h24h32h32h32h24v-16h-16V296z M184,328h16v32h-16V328z M216,320v-40h16v16v64h-16V320z M248,360v-56
	h16v56H248z"/>
<path fill="#243B45" d="M288,144h80v16h-80V144z"/>
<path fill="#243B45" d="M288,176h80v16h-80V176z"/>
<path fill="#243B45" d="M288,208h80v16h-80V208z"/>
<path fill="#243B45" d="M288,240h16v16h-16V240z"/>
<path fill="#243B45" d="M320,240h16v16h-16V240z"/>
<path fill="#243B45" d="M352,240h16v16h-16V240z"/>
</svg>
