<?xml version="1.0" encoding="utf-8"?>
<!-- Generator: Adobe Illustrator 16.0.0, SVG Export Plug-In . SVG Version: 6.00 Build 0)  -->
<!DOCTYPE svg PUBLIC "-//W3C//DTD SVG 1.1//EN" "http://www.w3.org/Graphics/SVG/1.1/DTD/svg11.dtd">
<svg version="1.1" id="Capa_1" xmlns="http://www.w3.org/2000/svg" xmlns:xlink="http://www.w3.org/1999/xlink" x="0px" y="0px"
	 width="512px" height="512px" viewBox="0 0 512 512" enable-background="new 0 0 512 512" xml:space="preserve">
<g>
	<g>
		<path fill="#243B45" d="M334.954,137.804H89.765c-4.16,0-7.532,3.372-7.532,7.532s3.372,7.532,7.532,7.532h245.19
			c4.16,0,7.532-3.372,7.532-7.532S339.114,137.804,334.954,137.804L334.954,137.804z"/>
		<path fill="#243B45" d="M89.765,100.621h122.594c4.16,0,7.532-3.372,7.532-7.532c0-4.16-3.372-7.532-7.532-7.532H89.765
			c-4.16,0-7.532,3.372-7.532,7.532C82.233,97.25,85.605,100.621,89.765,100.621z"/>
		<path fill="#243B45" d="M334.954,184.096H89.765c-4.16,0-7.532,3.372-7.532,7.532s3.372,7.532,7.532,7.532h245.19
			c4.16,0,7.532-3.372,7.532-7.532C342.486,187.468,339.114,184.096,334.954,184.096L334.954,184.096z"/>
		<path fill="#243B45" d="M145.618,459.668H67.151c-12.879,0-23.358-10.478-23.358-23.357V38.421
			c0-12.879,10.479-23.358,23.358-23.358h226.056c0.73,0,1.449,0.067,2.16,0.163V62.2c0,21.186,17.235,38.421,38.421,38.421h46.973
			c0.098,0.712,0.163,1.431,0.163,2.161v128.261c0,4.16,3.372,7.532,7.532,7.532s7.532-3.372,7.532-7.532v-128.26
			c0-8.262-3.219-16.03-9.061-21.873l-71.85-71.85C309.236,3.218,301.469,0,293.207,0H67.151C45.965,0,28.73,17.236,28.73,38.421
			v397.891c0,21.185,17.236,38.42,38.421,38.42h78.467c4.16,0,7.532-3.372,7.532-7.532S149.778,459.668,145.618,459.668
			L145.618,459.668z M370.273,85.558h-36.484c-12.879,0-23.358-10.479-23.358-23.358V25.716L370.273,85.558z"/>
		<path fill="#243B45" d="M480.958,368.729l-63.818-107.72c-4.65-7.854-14.772-10.45-22.631-5.795l-15.522,9.197
			c-12.05,7.138-17.143,21.583-13.005,34.384c-5.23,1.895-10.965,1.865-16.244-0.176c-12.256-3.855-21.574-11.613-36.963-7.721
			c-26.13,6.652-25.337,6.319-27.7,7.129c-15.301-8.711-24.497-11.303-40.739-5.02l-14.478,5.598
			c-6.703,2.59-14.089,1.976-20.283-1.694l-3.951-2.329c1.928-11.552-3.195-23.743-14.043-30.169c0,0,0,0-0.001-0.001l-15.522-9.196
			c-7.836-4.641-17.988-2.043-22.63,5.793L89.607,368.73c-4.651,7.852-2.063,17.977,5.793,22.629l15.522,9.197
			c4.697,2.782,9.859,4.105,14.959,4.105c5.687,0,11.294-1.648,16.088-4.752l3.235,1.908l-6.83,9.514
			c-8.139,11.338-5.553,27.104,5.787,35.244c5.244,3.764,11.832,5.482,18.645,4.413c1.081,6.318,4.543,12.232,10.149,16.259
			c5.265,3.78,11.823,5.501,18.648,4.426c1.084,6.314,4.544,12.224,10.147,16.246c7.53,5.405,16.892,6.03,24.693,2.698
			c1.707,4.434,4.674,8.438,8.813,11.41c10.808,7.757,25.696,5.733,34.094-4.316l18.15,10.752c12.003,7.113,27.49,3.16,34.607-8.856
			c1.819-3.072,2.948-6.421,3.361-9.861l0.041,0.025c11.985,7.098,27.507,3.124,34.607-8.858c2.056-3.471,3.183-7.236,3.457-11.009
			c10.563,2.655,22.077-1.781,27.906-11.621c1.913-3.229,3.022-6.715,3.388-10.225c11.321,4.443,24.555,0.149,30.949-10.643
			c3.438-5.805,4.411-12.601,2.738-19.139c-0.957-3.739-2.717-7.135-5.133-10.002l10.004-5.844
			c8.463,3.473,18.121,2.918,26.215-1.877l15.521-9.195C483.018,386.709,485.613,376.586,480.958,368.729L480.958,368.729z
			 M118.6,387.598l-15.522-9.197c-0.69-0.409-0.919-1.303-0.511-1.993l63.82-107.724c0.411-0.692,1.308-0.918,1.994-0.51
			l15.521,9.195c6.897,4.087,9.055,12.934,5.043,19.704l-50.641,85.479C134.262,389.377,125.424,391.639,118.6,387.598
			L118.6,387.598z M152.945,434.339c-4.574-3.284-5.62-9.646-2.334-14.222l10.039-13.984c3.198-4.455,9.571-5.674,14.222-2.335
			c4.565,3.277,5.612,9.656,2.336,14.222l-10.04,13.983C163.891,436.57,157.508,437.614,152.945,434.339z M181.74,455.012
			c-4.565-3.277-5.612-9.659-2.335-14.223l10.039-13.983c0,0,0,0,0-0.001c0,0,0-0.001,0.001-0.001l11.079-15.432
			c1.588-2.211,3.941-3.673,6.627-4.113c0.558-0.092,1.117-0.137,1.672-0.137c2.114,0,4.171,0.657,5.923,1.915
			c2.21,1.588,3.672,3.939,4.112,6.626c0.441,2.687-0.19,5.384-1.778,7.595l-21.119,29.418
			C192.679,457.251,186.316,458.298,181.74,455.012z M210.535,475.683c-4.563-3.275-5.611-9.651-2.34-14.216
			c0.001-0.002,0.003-0.004,0.004-0.006l21.119-29.417c3.275-4.563,9.659-5.612,14.222-2.336c4.565,3.277,5.612,9.657,2.335,14.222
			l-9.383,13.071c0,0,0,0-0.001,0.001l-11.735,16.346C221.479,477.913,215.101,478.962,210.535,475.683L210.535,475.683z
			 M244.041,489.791c-4.562-3.276-5.611-9.649-2.342-14.214l7.029-9.79c3.276-4.566,9.659-5.61,14.222-2.335
			s5.612,9.657,2.335,14.222l-7.023,9.781C254.986,492.021,248.604,493.069,244.041,489.791z M412.86,429.739
			c-2.866,4.837-9.13,6.44-13.969,3.576c-8.191-4.854-61.035-36.161-66.67-39.499c-3.58-2.119-8.198-0.938-10.318,2.641
			s-0.939,8.199,2.64,10.318l50.403,29.861l0.001,0.001c4.839,2.866,6.453,9.111,3.576,13.97c-2.867,4.839-9.135,6.439-13.971,3.576
			c-18.642-11.044-33.778-20.012-50.43-29.877c-3.581-2.12-8.199-0.938-10.319,2.641s-0.938,8.199,2.641,10.318l37.138,22.002
			l0.008,0.006c4.842,2.875,6.44,9.116,3.569,13.965c-2.867,4.839-9.132,6.441-13.972,3.576l-19.931-11.808
			c-0.002-0.001-0.005-0.002-0.007-0.004c-0.002-0.001-0.004-0.002-0.006-0.003l-14.545-8.618c-3.58-2.121-8.199-0.939-10.319,2.641
			c-2.12,3.578-0.938,8.198,2.64,10.318l14.549,8.619c0.002,0.001,0.004,0.003,0.006,0.004c4.839,2.866,6.453,9.11,3.576,13.968
			c-2.867,4.839-9.133,6.442-13.971,3.576l-16.972-10.053c7.274-11.227,4.508-26.354-6.474-34.236
			c-3.225-2.313-6.815-3.755-10.488-4.374c3.896-10.417,0.537-22.579-8.922-29.368c-5.6-4.022-12.305-5.412-18.633-4.42
			c-1.126-6.584-4.727-12.353-10.16-16.252c-10.218-7.332-24.104-5.924-32.681,2.754c-1.743-3.062-4.149-5.808-7.193-7.992
			c-8.491-6.094-19.515-6.151-27.921-1.019l-3.451-2.037l47.37-79.959l2.255,1.33c9.96,5.9,22.114,7.13,33.378,2.774l14.478-5.598
			c8.285-3.201,12.854-3.41,21.048,0.457c-5.361,6.023-8.545,13.932-8.545,22.457v33.395c0,8.869,7.211,16.091,16.074,16.097h0.022
			c8.89,0,17.25-3.461,23.539-9.746c3.666-3.664,6.372-8.032,7.994-12.8c9.725,5.759,90.071,53.338,99.387,58.857
			c2.343,1.388,4.005,3.604,4.68,6.242C414.641,424.653,414.248,427.396,412.86,429.739L412.86,429.739z M467.488,378.4
			l-15.523,9.197c-6.824,4.039-15.662,1.776-19.702-5.043l-23.735-40.065c-2.121-3.579-6.743-4.761-10.319-2.642
			c-3.579,2.119-4.761,6.739-2.642,10.318l23.735,40.066c0.447,0.754,0.933,1.471,1.435,2.17l-6.6,3.854
			c-1.334,0.79-2.617,1.66-3.844,2.605L307.97,338.268c-5.013-2.968-11.368,0.649-11.368,6.479c-0.08,0.45,0.777,8.192-5.346,14.313
			c-3.443,3.44-8.021,5.336-12.891,5.336c-0.004,0-0.008,0-0.012,0c-0.563,0-1.021-0.463-1.021-1.033v-33.395
			c0-8.725,6.002-16.084,14.119-18.14l25.016-6.331c9.077-2.294,14.208,2.553,27.799,7.152c9.436,3.65,19.694,3.426,28.801-0.463
			l4.546,7.674c2.121,3.58,6.74,4.761,10.318,2.642c3.579-2.12,4.762-6.739,2.643-10.319l-8.954-15.112
			c-4.051-6.839-1.794-15.65,5.043-19.703l15.521-9.195c0.679-0.403,1.575-0.196,1.995,0.511l63.818,107.722
			C468.409,377.1,468.182,377.989,467.488,378.4L467.488,378.4z"/>
	</g>
</g>
</svg>
