<?xml version="1.0" encoding="utf-8"?>
<!-- Generator: Adobe Illustrator 16.0.0, SVG Export Plug-In . SVG Version: 6.00 Build 0)  -->
<!DOCTYPE svg PUBLIC "-//W3C//DTD SVG 1.1//EN" "http://www.w3.org/Graphics/SVG/1.1/DTD/svg11.dtd">
<svg version="1.1" id="Capa_1" xmlns="http://www.w3.org/2000/svg" xmlns:xlink="http://www.w3.org/1999/xlink" x="0px" y="0px"
	 width="512px" height="512px" viewBox="0 0 512 512" enable-background="new 0 0 512 512" xml:space="preserve">
<g>
	<g>
		<path fill="#243B45" d="M145.618,459.668H67.151c-12.879,0-23.358-10.478-23.358-23.357V38.421
			c0-12.879,10.479-23.358,23.358-23.358h226.056c0.73,0,1.449,0.067,2.16,0.163V62.2c0,21.186,17.234,38.421,38.421,38.421h46.973
			c0.099,0.712,0.163,1.431,0.163,2.161v128.261c0,4.16,3.372,7.532,7.532,7.532s7.532-3.372,7.532-7.532v-128.26
			c0-8.262-3.22-16.03-9.062-21.873l-71.85-71.85C309.236,3.218,301.469,0,293.207,0H67.151C45.965,0,28.73,17.236,28.73,38.421
			v397.891c0,21.186,17.236,38.421,38.421,38.421h78.467c4.16,0,7.532-3.372,7.532-7.532S149.778,459.668,145.618,459.668
			L145.618,459.668z M370.273,85.558h-36.484c-12.879,0-23.358-10.479-23.358-23.358V25.716L370.273,85.558z"/>
		<path fill="#243B45" d="M480.958,368.729l-63.818-107.72c-4.649-7.854-14.771-10.45-22.631-5.795l-15.521,9.197
			c-12.05,7.138-17.144,21.583-13.005,34.384c-5.23,1.895-10.966,1.865-16.244-0.176c-12.256-3.855-21.574-11.613-36.963-7.721
			c-26.131,6.651-25.338,6.318-27.7,7.129c-15.302-8.711-24.497-11.303-40.739-5.021l-14.478,5.599
			c-6.703,2.59-14.089,1.976-20.283-1.694l-3.951-2.329c1.928-11.553-3.195-23.743-14.043-30.169c0,0,0,0-0.001-0.001l-15.522-9.196
			c-7.836-4.641-17.988-2.043-22.63,5.793L89.607,368.73c-4.651,7.852-2.063,17.977,5.793,22.629l15.522,9.197
			c4.697,2.781,9.859,4.104,14.959,4.104c5.687,0,11.294-1.647,16.088-4.752l3.235,1.907l-6.83,9.515
			c-8.139,11.338-5.553,27.104,5.787,35.244c5.244,3.764,11.832,5.481,18.645,4.413c1.081,6.317,4.543,12.231,10.149,16.259
			c5.265,3.78,11.823,5.501,18.648,4.426c1.084,6.314,4.544,12.225,10.147,16.246c7.53,5.405,16.892,6.03,24.693,2.698
			c1.707,4.434,4.674,8.438,8.813,11.41c10.808,7.757,25.696,5.732,34.094-4.316l18.15,10.752c12.003,7.113,27.49,3.16,34.607-8.855
			c1.818-3.072,2.947-6.422,3.36-9.861l0.041,0.024c11.985,7.099,27.507,3.124,34.607-8.857c2.056-3.471,3.183-7.236,3.457-11.009
			c10.563,2.654,22.077-1.781,27.905-11.621c1.913-3.229,3.022-6.715,3.389-10.226c11.321,4.443,24.555,0.149,30.949-10.643
			c3.438-5.805,4.41-12.602,2.737-19.14c-0.957-3.738-2.717-7.135-5.133-10.002l10.004-5.844c8.463,3.473,18.121,2.918,26.215-1.877
			l15.521-9.195C483.018,386.709,485.613,376.586,480.958,368.729L480.958,368.729z M118.6,387.598l-15.522-9.197
			c-0.69-0.408-0.919-1.303-0.511-1.992l63.82-107.725c0.411-0.691,1.308-0.918,1.994-0.51l15.521,9.195
			c6.897,4.087,9.055,12.934,5.043,19.704l-50.641,85.479C134.262,389.377,125.424,391.639,118.6,387.598L118.6,387.598z
			 M152.945,434.339c-4.574-3.284-5.62-9.646-2.334-14.222l10.039-13.984c3.198-4.455,9.571-5.674,14.222-2.335
			c4.565,3.277,5.612,9.656,2.336,14.222l-10.04,13.983C163.891,436.57,157.508,437.614,152.945,434.339z M181.74,455.012
			c-4.565-3.276-5.612-9.659-2.335-14.223l10.039-13.983c0,0,0,0,0-0.001c0,0,0-0.001,0.001-0.001l11.079-15.432
			c1.588-2.211,3.941-3.673,6.627-4.113c0.558-0.092,1.117-0.137,1.672-0.137c2.114,0,4.171,0.657,5.923,1.915
			c2.21,1.588,3.672,3.939,4.112,6.626c0.441,2.687-0.19,5.384-1.778,7.595l-21.119,29.418
			C192.679,457.251,186.316,458.298,181.74,455.012z M210.535,475.683c-4.563-3.274-5.611-9.65-2.34-14.216
			c0.001-0.002,0.003-0.004,0.004-0.006l21.119-29.417c3.275-4.563,9.659-5.612,14.222-2.336c4.565,3.277,5.612,9.657,2.335,14.222
			l-9.383,13.071c0,0,0,0-0.001,0.001l-11.735,16.346C221.479,477.913,215.101,478.962,210.535,475.683L210.535,475.683z
			 M244.041,489.791c-4.562-3.276-5.611-9.649-2.342-14.214l7.029-9.79c3.276-4.566,9.659-5.61,14.222-2.335
			c4.563,3.274,5.612,9.657,2.335,14.222l-7.023,9.781C254.986,492.021,248.604,493.069,244.041,489.791z M412.86,429.739
			c-2.866,4.837-9.13,6.439-13.97,3.576c-8.19-4.854-61.034-36.161-66.67-39.499c-3.58-2.119-8.197-0.938-10.317,2.641
			s-0.939,8.199,2.64,10.318l50.403,29.86l0.001,0.001c4.839,2.866,6.453,9.111,3.576,13.971c-2.867,4.839-9.136,6.438-13.972,3.575
			c-18.642-11.044-33.777-20.012-50.43-29.877c-3.581-2.12-8.199-0.938-10.319,2.642s-0.938,8.198,2.642,10.317l37.138,22.002
			l0.008,0.007c4.842,2.875,6.44,9.115,3.569,13.965c-2.867,4.839-9.132,6.44-13.972,3.575l-19.932-11.808
			c-0.002-0.001-0.005-0.002-0.007-0.004c-0.002-0.001-0.004-0.002-0.006-0.003l-14.545-8.618c-3.58-2.121-8.199-0.938-10.319,2.641
			c-2.12,3.578-0.938,8.198,2.641,10.318l14.549,8.619c0.002,0.001,0.004,0.003,0.006,0.004c4.839,2.866,6.453,9.11,3.576,13.968
			c-2.867,4.839-9.134,6.442-13.971,3.576l-16.973-10.053c7.273-11.228,4.508-26.354-6.475-34.236
			c-3.225-2.313-6.814-3.755-10.487-4.374c3.896-10.417,0.537-22.579-8.922-29.367c-5.6-4.022-12.305-5.412-18.633-4.421
			c-1.126-6.584-4.727-12.353-10.16-16.252c-10.218-7.332-24.104-5.924-32.681,2.754c-1.743-3.062-4.149-5.808-7.193-7.991
			c-8.491-6.095-19.515-6.151-27.921-1.02l-3.451-2.037l47.37-79.959l2.255,1.33c9.96,5.9,22.114,7.13,33.378,2.773l14.478-5.598
			c8.285-3.201,12.854-3.41,21.047,0.457c-5.36,6.023-8.545,13.932-8.545,22.457v33.395c0,8.869,7.211,16.092,16.074,16.098h0.022
			c8.89,0,17.25-3.461,23.539-9.746c3.666-3.664,6.372-8.032,7.994-12.8c9.725,5.759,90.07,53.338,99.387,58.856
			c2.343,1.389,4.005,3.604,4.68,6.242C414.641,424.653,414.248,427.396,412.86,429.739L412.86,429.739z M467.488,378.4
			l-15.523,9.197c-6.824,4.038-15.662,1.775-19.702-5.043l-23.734-40.066c-2.121-3.578-6.743-4.76-10.319-2.641
			c-3.579,2.118-4.761,6.738-2.642,10.317l23.734,40.065c0.447,0.754,0.934,1.472,1.436,2.17l-6.601,3.854
			c-1.334,0.79-2.617,1.66-3.844,2.604L307.97,338.268c-5.013-2.968-11.368,0.649-11.368,6.479c-0.08,0.45,0.777,8.192-5.346,14.313
			c-3.443,3.439-8.021,5.336-12.891,5.336c-0.004,0-0.008,0-0.012,0c-0.563,0-1.021-0.463-1.021-1.033v-33.396
			c0-8.725,6.002-16.084,14.119-18.14l25.016-6.331c9.077-2.294,14.208,2.553,27.799,7.151c9.437,3.65,19.694,3.427,28.802-0.463
			l4.546,7.674c2.121,3.58,6.739,4.762,10.317,2.643c3.579-2.12,4.763-6.738,2.644-10.318l-8.954-15.113
			c-4.051-6.838-1.794-15.649,5.043-19.702l15.521-9.195c0.68-0.403,1.575-0.196,1.995,0.511l63.818,107.723
			C468.409,377.1,468.182,377.989,467.488,378.4L467.488,378.4z"/>
		<path fill="#243B45" d="M190.432,199.234l-39.809-39.809l39.809-39.809c2.749-2.749,2.749-7.203,0-9.952
			C177.14,96.37,159.467,89.05,140.671,89.05s-36.469,7.319-49.761,20.614c-13.295,13.292-20.614,30.964-20.614,49.761
			s7.319,36.469,20.614,49.761c13.292,13.295,30.964,20.614,49.761,20.614s36.469-7.319,49.761-20.614
			C193.181,206.437,193.181,201.983,190.432,199.234z M140.671,215.725c-15.037,0-29.174-5.855-39.809-16.491
			s-16.491-24.772-16.491-39.809s5.855-29.174,16.491-39.809s24.772-16.491,39.809-16.491c12.666,0,24.693,4.154,34.528,11.821
			l-39.503,39.503c-2.749,2.749-2.749,7.202,0,9.951l39.503,39.503C165.364,211.571,153.337,215.725,140.671,215.725z"/>
		<path fill="#243B45" d="M184.958,164.401l44.785,44.785c1.375,1.375,3.176,2.062,4.977,2.062s3.602-0.688,4.976-2.062
			c13.295-13.292,20.614-30.964,20.614-49.761s-7.319-36.469-20.614-49.761c-2.749-2.749-7.202-2.749-9.952,0l-44.785,44.785
			C182.208,157.199,182.208,161.652,184.958,164.401z M234.412,124.897c7.667,9.835,11.821,21.862,11.821,34.528
			s-4.154,24.693-11.821,34.528l-34.527-34.528L234.412,124.897z"/>
		<path fill="#243B45" d="M317.396,139.916h14.075c3.879,0,7.037,3.158,7.037,7.038h14.075c0-11.643-9.47-21.113-21.112-21.113
			v-14.075h-14.075v14.075c-11.642,0-21.112,9.471-21.112,21.113v7.037c0,11.643,9.471,21.112,21.112,21.112h14.075
			c3.879,0,7.037,3.158,7.037,7.038v7.037c0,3.88-3.158,7.037-7.037,7.037h-14.075c-3.88,0-7.038-3.157-7.038-7.037h-14.074
			c0,11.643,9.471,21.112,21.112,21.112v14.075h14.075v-14.075c11.643,0,21.112-9.47,21.112-21.112v-7.037
			c0-11.643-9.47-21.113-21.112-21.113h-14.075c-3.88,0-7.038-3.157-7.038-7.037v-7.037
			C310.357,143.074,313.516,139.916,317.396,139.916z"/>
	</g>
</g>
</svg>
