<?xml version="1.0" encoding="utf-8"?>
<!-- Generator: Adobe Illustrator 16.0.0, SVG Export Plug-In . SVG Version: 6.00 Build 0)  -->
<!DOCTYPE svg PUBLIC "-//W3C//DTD SVG 1.1//EN" "http://www.w3.org/Graphics/SVG/1.1/DTD/svg11.dtd">
<svg version="1.1" id="Capa_1" xmlns="http://www.w3.org/2000/svg" xmlns:xlink="http://www.w3.org/1999/xlink" x="0px" y="0px"
	 width="500px" height="500px" viewBox="0 0 500 500" enable-background="new 0 0 500 500" xml:space="preserve">
<g>
	<g>
		<path fill="#243B45" d="M442.417,352.854c-2.742-1.137-5.898-0.508-7.998,1.59l-80.201,80.202c-2.099,2.1-2.727,5.256-1.59,7.998
			c1.135,2.743,3.813,4.53,6.78,4.53h80.201c4.054,0,7.339-3.285,7.339-7.339v-80.202
			C446.947,356.666,445.159,353.99,442.417,352.854z M377.123,432.497l55.146-55.146v55.146H377.123z"/>
	</g>
</g>
<g>
	<g>
		<path fill="#243B45" d="M495.471,235.222c-2.742-1.137-5.898-0.509-7.998,1.59l-21.979,21.979V109.347
			c0-4.054-3.286-7.339-7.339-7.339h-56.388l20.469-20.469c0.003-0.003,0.006-0.007,0.009-0.01l19.723-19.723
			c4.226-4.226,6.553-9.847,6.553-15.823s-2.327-11.596-6.553-15.823L419.16,7.354c-4.226-4.226-9.847-6.553-15.823-6.553
			s-11.597,2.327-15.823,6.553l-19.732,19.732L343.938,50.93l-51.078,51.077H65.059V29.404c0-4.054-3.286-7.339-7.339-7.339
			C25.894,22.067,0,47.959,0,79.787v311.706c0,0.542,0.063,1.069,0.174,1.577c1.014,13.505,6.856,26.053,16.621,35.578
			c10.438,10.18,24.216,15.786,38.798,15.786H279.85l-42.236,42.235c-2.099,2.1-2.727,5.255-1.591,7.998
			c1.136,2.742,3.813,4.53,6.78,4.53h249.859c4.053,0,7.339-3.285,7.339-7.339V242.002
			C500.001,239.035,498.212,236.358,495.471,235.222z M397.895,17.733c3-3.002,7.888-3.002,10.888,0l22.808,22.808
			c3.002,3.001,3.002,7.887,0,10.889l-14.542,14.543l-33.697-33.696L397.895,17.733z M372.972,42.655l33.696,33.695l-13.466,13.466
			l-33.694-33.695L372.972,42.655z M485.325,324.465h-13.54c-4.054,0-7.339,3.285-7.339,7.34c0,4.053,3.285,7.338,7.339,7.338h13.54
			v22.116h-13.54c-4.054,0-7.339,3.285-7.339,7.339s3.285,7.339,7.339,7.339h13.54v22.114h-13.54c-4.054,0-7.339,3.285-7.339,7.339
			s3.285,7.339,7.339,7.339h13.54v22.115h-13.54c-4.054,0-7.339,3.286-7.339,7.339c0,4.054,3.285,7.339,7.339,7.339h13.54v35.002
			H260.52l74.13-74.128c2.866-2.867,2.866-7.513,0-10.379c-0.329-0.329-0.683-0.614-1.053-0.868
			c-2.857-1.957-6.789-1.669-9.327,0.868l-29.742,29.742H55.594c-22.258,0-40.176-17.377-40.881-39.595
			c0.042-1.395,0.15-2.777,0.324-4.145c0.001-0.008,0.002-0.016,0.003-0.023c0.082-0.649,0.181-1.296,0.293-1.938
			c0.013-0.073,0.026-0.146,0.039-0.22c0.103-0.573,0.218-1.144,0.344-1.712c0.035-0.158,0.072-0.316,0.109-0.474
			c0.111-0.48,0.231-0.958,0.36-1.434c0.07-0.258,0.144-0.513,0.219-0.77c0.107-0.373,0.219-0.745,0.337-1.113
			s0.244-0.732,0.372-1.097c0.089-0.255,0.177-0.51,0.272-0.763c0.179-0.48,0.368-0.956,0.563-1.428
			c0.056-0.136,0.11-0.273,0.168-0.409c0.251-0.586,0.512-1.165,0.787-1.737c0.012-0.024,0.022-0.049,0.034-0.073
			c5.74-11.879,16.78-20.735,30.029-23.483c0.037-0.008,0.074-0.017,0.111-0.024c0.607-0.124,1.221-0.23,1.838-0.329
			c0.103-0.017,0.205-0.037,0.31-0.053c0.558-0.085,1.121-0.151,1.685-0.215c0.158-0.018,0.315-0.042,0.475-0.058
			c0.544-0.055,1.093-0.091,1.642-0.125c0.174-0.011,0.348-0.029,0.521-0.038c0.719-0.036,1.443-0.055,2.171-0.055
			c4.053,0,7.339-3.285,7.339-7.339v-93.944c0-4.054-3.286-7.339-7.339-7.339s-7.339,3.285-7.339,7.339v87.067
			c-12.393,1.567-23.896,7.095-32.966,15.952c-0.954,0.932-1.858,1.9-2.739,2.885V79.787c0-21.231,15.455-38.924,35.704-42.418
			v71.978v149.196v0.002c0,4.053,3.286,7.338,7.339,7.338s7.339-3.285,7.339-7.338v-0.002V116.686h213.126l-40.571,40.571
			c-2.866,2.867-2.866,7.513,0,10.379c2.866,2.865,7.513,2.865,10.378,0l53.099-53.099c0.002-0.002,0.003-0.004,0.005-0.005
			l48.032-48.032l33.694,33.696l-3.953,3.953c-0.003,0.003-0.007,0.006-0.01,0.009L230.881,252.137l-33.695-33.696l63.243-63.243
			c2.866-2.867,2.866-7.513,0-10.379c-2.866-2.865-7.513-2.865-10.378,0l-68.433,68.432c-0.184,0.184-0.355,0.378-0.517,0.577
			c-0.054,0.066-0.102,0.138-0.152,0.207c-0.104,0.138-0.205,0.276-0.3,0.421c-0.054,0.084-0.103,0.17-0.153,0.257
			c-0.081,0.137-0.159,0.275-0.23,0.417c-0.047,0.092-0.089,0.185-0.132,0.28c-0.065,0.144-0.126,0.29-0.182,0.437
			c-0.02,0.052-0.045,0.101-0.063,0.152l-14.298,40.502l-9.748,27.617c-0.129,0.367-0.222,0.74-0.291,1.115h-24.407
			c-4.053,0-7.339,3.285-7.339,7.34c0,4.053,3.286,7.338,7.339,7.338h203.237c4.054,0,7.339-3.285,7.339-7.338
			c0-4.055-3.285-7.34-7.339-7.34H188.568l44.756-15.799c0.037-0.014,0.072-0.031,0.109-0.045c0.174-0.064,0.345-0.137,0.514-0.215
			c0.067-0.031,0.135-0.061,0.2-0.092c0.176-0.088,0.349-0.186,0.519-0.289c0.055-0.033,0.111-0.063,0.165-0.098
			c0.177-0.113,0.349-0.236,0.518-0.367c0.042-0.033,0.086-0.061,0.127-0.094c0.204-0.164,0.404-0.342,0.594-0.531l151.02-151.019
			h63.726v156.784L345.838,378.448c-2.866,2.867-2.866,7.513,0,10.379c0.179,0.179,0.365,0.347,0.558,0.504
			c1.346,1.097,2.989,1.646,4.632,1.646s3.287-0.549,4.632-1.646c0.192-0.156,0.379-0.325,0.558-0.504c0.003-0.003,0,0,0.003-0.003
			l129.105-129.107V324.465z M217.458,259.469l-21.021,7.422l-14.006-14.006l7.421-21.022L217.458,259.469z"/>
	</g>
</g>
</svg>
