<?xml version="1.0" encoding="utf-8"?>
<!-- Generator: Adobe Illustrator 16.0.0, SVG Export Plug-In . SVG Version: 6.00 Build 0)  -->
<!DOCTYPE svg PUBLIC "-//W3C//DTD SVG 1.1//EN" "http://www.w3.org/Graphics/SVG/1.1/DTD/svg11.dtd">
<svg version="1.1" id="Capa_1" xmlns="http://www.w3.org/2000/svg" xmlns:xlink="http://www.w3.org/1999/xlink" x="0px" y="0px"
	 width="500px" height="500px" viewBox="0 0 500 500" enable-background="new 0 0 500 500" xml:space="preserve">
<g>
	<g>
		<path fill="#243B45" d="M494.534,339.594l-15.311-14.372c-2.884-2.707-7.416-2.564-10.123,0.32
			c-2.707,2.884-2.563,7.416,0.32,10.123l15.31,14.372c1.048,0.983,1.271,2.591,0.53,3.822l-3.548,5.896
			c-0.658,1.094-1.667,1.384-2.21,1.458c-0.541,0.076-1.592,0.071-2.523-0.803l-10.44-9.801c-2.082-1.955-5.129-2.486-7.748-1.351
			c-2.621,1.135-4.317,3.719-4.315,6.575l0.04,97.488l-34.483,0.013v-70.009c0-8.602-6.998-15.6-15.6-15.6h-32.851
			c-8.602,0-15.6,6.998-15.6,15.6v70.033l-39.721,0.015l-0.04-97.487c-0.001-2.855-1.699-5.438-4.321-6.571
			c-2.622-1.134-5.666-0.601-7.746,1.356l-10.432,9.807c-0.93,0.875-1.978,0.882-2.523,0.805c-0.543-0.074-1.552-0.363-2.211-1.457
			l-3.549-5.892c-0.741-1.23-0.52-2.838,0.527-3.822l27.993-26.316c1.44-1.354,2.257-3.244,2.256-5.221L316.2,276.72
			c0-0.561,0.261-0.939,0.479-1.158s0.597-0.48,1.158-0.48l11.579-0.004c0.902,0,1.638,0.733,1.638,1.637l0.006,14.446
			c0.001,2.855,1.699,5.438,4.32,6.571c2.62,1.131,5.665,0.6,7.747-1.356l4.271-4.016c5.364,4.199,10.736,7.195,15.986,8.91
			c2.542,9.756,11.426,16.979,21.966,16.979c12.516,0,22.697-10.183,22.697-22.697c0-12.516-10.183-22.697-22.697-22.697
			c-9.242,0-17.207,5.556-20.743,13.501c-2.146-0.999-4.362-2.315-6.624-3.945l25.061-23.56c1.271-1.196,3.266-1.198,4.54-0.001
			l48.901,45.903c2.884,2.707,7.416,2.564,10.123-0.32c2.707-2.884,2.564-7.416-0.32-10.123l-39.291-36.883
			c1.098-18.183-2.314-39.521-9.767-60.657c-2.851-8.085-6.191-15.806-9.903-23.031c9-37.495-1.101-78.682-30.308-107.889
			c-21.632-21.632-50.392-33.545-80.983-33.545s-59.353,11.913-80.984,33.545s-33.545,50.392-33.545,80.983
			c0,16.981,3.677,33.396,10.643,48.344L80.608,286.72c-2.797,2.797-2.797,7.331,0,10.128s7.331,2.797,10.128,0l88.594-88.593
			c2.208,3.462,4.616,6.814,7.209,10.048c0.065,0.082,0.132,0.165,0.198,0.247c0.548,0.679,1.104,1.353,1.668,2.021
			c0.127,0.15,0.253,0.302,0.381,0.452c0.512,0.601,1.032,1.194,1.558,1.786c0.168,0.189,0.334,0.381,0.504,0.569
			c0.515,0.571,1.038,1.136,1.564,1.697c0.175,0.187,0.347,0.376,0.522,0.563c0.696,0.733,1.402,1.461,2.12,2.179
			c0.717,0.717,1.443,1.422,2.177,2.118c0.191,0.182,0.387,0.358,0.58,0.539c0.556,0.521,1.114,1.038,1.678,1.547
			c0.194,0.175,0.392,0.347,0.588,0.52c0.583,0.519,1.169,1.031,1.761,1.536c0.16,0.137,0.322,0.271,0.483,0.407
			c0.655,0.554,1.316,1.1,1.982,1.637c0.094,0.076,0.188,0.151,0.283,0.228c3.229,2.587,6.574,4.99,10.029,7.194l-78.921,78.921
			l-25.851,4.453c-5.533,0.953-9.892,5.312-10.845,10.845l-3.98,23.105l-23.108,3.98c-5.534,0.953-9.892,5.312-10.844,10.845
			l-4.453,25.851l-6.271,6.271l-35.999,0.713l0.713-35.999l43.958-43.957c2.797-2.797,2.797-7.331,0-10.128s-7.331-2.797-10.128,0
			l-44.253,44.25c-2.44,2.441-3.822,5.687-3.89,9.136l-0.742,37.484c-0.071,3.597,1.347,7.119,3.891,9.663
			c2.483,2.482,5.897,3.894,9.404,3.894c0.086,0,0.173,0,0.259-0.002l37.484-0.742c3.45-0.068,6.695-1.449,9.138-3.891l6.794-6.794
			c1.953-1.952,3.233-4.423,3.702-7.145l4.385-25.457l23.107-3.98c5.533-0.953,9.892-5.312,10.845-10.845l3.98-23.108l25.457-4.385
			c2.721-0.469,5.191-1.748,7.144-3.701l82.104-82.104c14.947,6.967,31.361,10.643,48.343,10.643c14.254,0,28.109-2.589,41.033-7.54
			c1.254,2.37,2.547,4.688,3.88,6.936l-3.117,0.001c-4.264,0.002-8.271,1.663-11.284,4.679c-3.014,3.016-4.673,7.024-4.671,11.288
			l0.015,38.758l-25.735,24.194c-5.93,5.574-7.186,14.68-2.986,21.65l3.549,5.892c2.727,4.524,7.291,7.533,12.523,8.255
			c4.529,0.626,9.036-0.534,12.661-3.201l0.034,83.059c0.001,3.306,1.289,6.412,3.627,8.748c2.337,2.336,5.442,3.621,8.747,3.621
			c0.001,0,0.003,0,0.004,0l98.553-0.019c0.126,0,43.601-0.035,0.373-0.019l43.229-0.017c6.822-0.003,12.371-5.556,12.368-12.378
			l-0.034-83.058c3.629,2.664,8.137,3.821,12.664,3.192c5.232-0.725,9.794-3.736,12.517-8.262l3.548-5.896
			C501.73,354.27,500.469,345.165,494.534,339.594z M382.951,301.434c4.03-1.421,7.614-3.738,10.713-6.872
			c0.038,0.325,0.063,0.653,0.063,0.989c0,4.617-3.757,8.374-8.374,8.374c-1.902,0-3.652-0.645-5.06-1.718
			C381.188,301.99,382.076,301.742,382.951,301.434z M383.724,201.53c5.616,15.929,8.428,30.884,9.027,43.758
			c-6.37-2.954-14.147-1.923-19.517,3.125l-25.891,24.34c-6.258-6.84-12.095-15.31-17.231-24.902
			c9.778-5.251,18.84-11.966,26.909-20.035c10.212-10.212,18.08-21.89,23.621-34.36C381.723,196.097,382.756,198.786,383.724,201.53
			z M319.691,224.106c-10.37-29.414-11.192-55.517-6.138-71.295c9.387-0.688,18.578-4.601,25.74-11.763
			c15.845-15.845,15.845-41.628,0-57.473c-15.846-15.846-41.629-15.846-57.473,0c-15.845,15.846-15.845,41.628,0,57.473
			c4.965,4.965,10.904,8.372,17.208,10.226c-1.036,3.858-1.799,8.062-2.268,12.587c-1.979,19.076,1.367,42.163,9.422,65.008
			c1.441,4.087,3.009,8.081,4.682,11.97c-11,4.068-22.749,6.197-34.827,6.197c-16.358,0-32.115-3.9-46.219-11.249
			c-0.074-0.042-0.143-0.092-0.218-0.131c-5.577-2.918-10.86-6.359-15.797-10.28c-0.067-0.054-0.135-0.108-0.202-0.162
			c-1.852-1.479-3.652-3.028-5.403-4.641c-0.181-0.167-0.361-0.335-0.541-0.503c-0.836-0.781-1.664-1.572-2.476-2.384
			c-0.813-0.813-1.605-1.642-2.388-2.479c-0.166-0.178-0.332-0.355-0.496-0.534c-1.616-1.754-3.168-3.559-4.649-5.414
			c-0.051-0.063-0.102-0.126-0.151-0.189c-3.923-4.938-7.365-10.223-10.284-15.802c-0.04-0.076-0.09-0.146-0.133-0.221
			c-7.348-14.103-11.247-29.858-11.247-46.217c0-26.766,10.423-51.93,29.35-70.855s44.09-29.35,70.855-29.35
			s51.93,10.423,70.855,29.35c39.069,39.07,39.069,102.641,0,141.711c-6.906,6.906-14.646,12.675-22.989,17.224
			C322.405,231.404,320.994,227.8,319.691,224.106z M304.51,137.912c-4.606-1.08-8.977-3.407-12.561-6.991
			c-10.26-10.261-10.26-26.956,0-37.217s26.956-10.26,37.217,0c7.918,7.918,9.719,19.666,5.417,29.334
			c-4.896-0.785-9.64-0.413-14.117,1.166C313.908,126.516,308.524,131.193,304.51,137.912z M405.708,453.341l-35.401,0.013v-70.027
			c0-0.703,0.572-1.275,1.275-1.275h32.851c0.703,0,1.275,0.572,1.275,1.275V453.341z"/>
	</g>
</g>
</svg>
