<svg xmlns="http://www.w3.org/2000/svg" width="12.769" height="12.77" viewBox="0 0 12.769 12.77">
  <g id="icon-phone" transform="translate(-240.542 -4379.507)">
    <path id="Path_836" data-name="Path 836" d="M-1800.592-77.612l-1.31-.874-1.165-.776a.516.516,0,0,0-.693.112l-.721.926a.513.513,0,0,1-.655.136,8.387,8.387,0,0,1-2.343-1.806,8.454,8.454,0,0,1-1.806-2.343.514.514,0,0,1,.136-.655l.927-.721a.516.516,0,0,0,.113-.693l-.753-1.129-.9-1.346a.516.516,0,0,0-.695-.156l-1.035.621a1.264,1.264,0,0,0-.574.743c-.283,1.032-.34,3.308,3.308,6.956s5.924,3.591,6.956,3.308a1.265,1.265,0,0,0,.743-.574l.621-1.035A.516.516,0,0,0-1800.592-77.612Z" transform="translate(2053.18 4467.009)" fill="none" stroke="#fff" stroke-miterlimit="10" stroke-width="0.9"/>
  </g>
</svg>
