<?xml version="1.0" encoding="utf-8"?>
<!-- Generator: Adobe Illustrator 16.0.0, SVG Export Plug-In . SVG Version: 6.00 Build 0)  -->
<!DOCTYPE svg PUBLIC "-//W3C//DTD SVG 1.1//EN" "http://www.w3.org/Graphics/SVG/1.1/DTD/svg11.dtd">
<svg version="1.1" id="圖層_1" xmlns="http://www.w3.org/2000/svg" xmlns:xlink="http://www.w3.org/1999/xlink" x="0px" y="0px"
	 width="261px" height="144.5px" viewBox="0 0 261 144.5" enable-background="new 0 0 261 144.5" xml:space="preserve">
<g enable-background="new    ">
	<path fill="#EEF2F3" d="M65.474,84.396C54.758,86.52,45.791,89.021,38.569,91.9c-4.343,6.372-9.11,14.019-14.302,22.939
		l-3.752,6.584c-0.662,1.181-1.675,2.88-3.044,5.098c-1.51,2.596-3.091,3.895-4.744,3.895c-0.896,0-1.652-0.354-2.266-1.063
		c-0.613-0.612-0.92-1.297-0.92-2.053c0-1.321,1.77-5.073,5.31-11.258c1.936-3.351,4.861-8.094,8.779-14.23
		c1.51-2.359,2.714-4.295,3.611-5.806c-2.832,0.803-5.428,1.724-7.788,2.761c-1.133,0.521-2.077,0.779-2.832,0.779
		c-0.944,0-1.675-0.425-2.195-1.274c-0.377-0.519-0.566-1.133-0.566-1.841c0-1.604,0.566-2.737,1.699-3.398
		c1.841-1.133,5.144-2.431,9.912-3.895c3.54-1.133,6.348-2.17,8.425-3.115c0.991-1.227,3.586-4.837,7.788-10.832
		c1.793-2.596,6.891-8.731,15.293-18.408c6.042-7.08,12.272-13.664,18.691-19.754c3.728-3.586,6.584-5.381,8.567-5.381
		c1.227,0,2.289,0.496,3.186,1.487c0.754,0.897,1.133,1.889,1.133,2.974c0,1.322-0.662,3.635-1.982,6.938
		c-2.266,5.806-4.437,12.013-6.514,18.62c-1.794,5.854-2.998,10.338-3.611,13.453c0.85,0,1.416-0.023,1.699-0.071
		c1.369-0.047,2.501-0.071,3.398-0.071c2.737,0,4.106,1.039,4.106,3.115c0,0.897-0.295,1.782-0.885,2.655
		c-0.591,0.874-1.264,1.405-2.018,1.593c-0.283,0.096-1.062,0.143-2.336,0.143c-2.69,0-4.697,0.165-6.018,0.495
		c-1.133,3.352-2.927,11.919-5.381,25.7c-1.274,9.158-1.888,14.774-1.841,16.852c0,3.398-1.016,5.098-3.044,5.098
		c-1.605,0-2.856-0.827-3.752-2.479c-0.662-1.133-0.991-2.666-0.991-4.602c0-6.514,1.156-15.293,3.469-26.338
		C64.033,91.642,64.907,87.369,65.474,84.396z M67.456,76.749c0.425-1.368,1.51-5.026,3.257-10.974
		c0.425-1.559,1.51-4.649,3.257-9.275c1.746-4.767,3.139-8.59,4.177-11.47c-3.069,2.03-6.184,4.721-9.346,8.071
		c-11.14,11.989-18.999,21.783-23.577,29.383c1.746-0.426,5.498-1.487,11.257-3.187C58.134,78.826,61.792,77.977,67.456,76.749z"/>
	<path fill="#EEF2F3" d="M104.587,86.307c4.011-3.398,7.622-5.098,10.833-5.098c1.982,0,3.611,0.827,4.885,2.479
		c1.179,1.464,1.77,3.163,1.77,5.098c0,3.682-1.204,8.143-3.611,13.381c-2.69,5.807-6.584,11.211-11.682,16.214
		c-4.202,4.154-8.213,6.23-12.036,6.23c-1.416,0-2.703-0.259-3.858-0.778c-1.157-0.52-2.184-1.298-3.08-2.337
		c-0.377,0.661-0.613,1.086-0.708,1.274c-0.802,1.747-1.356,2.809-1.664,3.186c-0.306,0.379-0.79,0.566-1.451,0.566
		c-0.85,0-1.652-0.495-2.407-1.486c-0.519-0.66-0.779-1.368-0.779-2.124c0-1.321,2.715-8.001,8.142-20.036
		c7.599-16.804,16.401-33.513,26.409-50.127c4.059-6.797,6.537-10.785,7.434-11.966c0.991-1.416,1.912-2.124,2.761-2.124
		c1.038,0,1.958,0.52,2.761,1.558c0.519,0.661,0.779,1.44,0.779,2.337c0,0.99-0.449,2.242-1.345,3.752
		c-0.189,0.331-1.676,2.762-4.46,7.293C114.735,66.813,108.504,77.717,104.587,86.307z M92.657,116.964
		c0.731,0.473,1.498,0.708,2.301,0.708c4.106,0,8.449-3.563,13.027-10.691c2.124-3.209,3.799-6.395,5.027-9.558
		c1.085-2.832,1.628-4.932,1.628-6.302c0-0.943-0.212-1.639-0.637-2.088c-0.425-0.448-1.086-0.673-1.982-0.673
		c-2.171,0-4.791,1.487-7.859,4.46c-3.069,2.928-6.089,7.151-9.063,12.674c-1.416,2.644-2.644,5.122-3.682,7.434l-0.92,1.912
		C91.206,115.784,91.925,116.492,92.657,116.964z"/>
	<path fill="#EEF2F3" d="M156.303,77.811c3.869,0,5.806,2.361,5.806,7.08c0,6.278-2.903,14.231-8.708,23.86
		c-6.326,10.432-12.438,15.647-18.338,15.647c-2.736,0-4.744-1.275-6.018-3.824c-0.661-1.273-0.991-2.808-0.991-4.602
		c0-6.041,2.078-12.603,6.23-19.683c3.87-6.561,8.426-11.658,13.665-15.293C151.016,78.873,153.801,77.811,156.303,77.811z
		 M148.939,104.574c-1.18-0.944-1.77-1.676-1.77-2.195c0-0.377,0.754-1.416,2.266-3.115c4.248-4.767,6.371-8.613,6.371-11.541
		c0-0.377-0.117-0.754-0.354-1.133c-0.379-0.707-0.968-1.062-1.77-1.062c-1.512,0-3.729,1.464-6.656,4.39
		c-3.776,3.776-6.654,7.671-8.637,11.682c-2.313,4.579-3.47,8.379-3.47,11.399c0,0.803,0.212,1.511,0.638,2.124
		c0.612,0.85,1.391,1.274,2.336,1.274c2.266,0,4.696-1.699,7.293-5.098c1.133-1.416,2.053-2.879,2.761-4.39
		C148.656,105.4,148.986,104.621,148.939,104.574z"/>
	<path fill="#EEF2F3" d="M186.707,112.645c-2.029,2.832-3.823,5.098-5.381,6.797c-2.738,3.021-5.451,4.531-8.143,4.531
		c-2.312,0-4.105-1.037-5.381-3.115c-0.896-1.462-1.345-3.209-1.345-5.238c0-6.09,2.597-13.074,7.788-20.957
		c2.407-3.682,4.79-6.49,7.15-8.426c1.842-1.558,3.352-2.336,4.531-2.336c0.661,0,1.275,0.283,1.842,0.85
		c0.471,0.52,0.707,1.038,0.707,1.557c0,0.897-0.873,2.361-2.619,4.391c-3.918,4.672-6.893,8.968-8.921,12.885
		c-2.36,4.579-3.54,8.167-3.54,10.762c0,0.662,0.152,1.169,0.461,1.522c0.306,0.354,0.742,0.531,1.309,0.531
		c2.408,0,5.759-3.445,10.055-10.337c2.218-3.587,4.129-7.552,5.734-11.895c0.85-2.359,1.958-4.461,3.328-6.301
		c1.32-1.652,2.619-2.479,3.894-2.479c0.708,0,1.345,0.308,1.911,0.92c0.613,0.662,0.921,1.394,0.921,2.195
		c0,1.699-1.628,5.522-4.886,11.47c-2.219,4.106-3.327,7.529-3.327,10.267c0,2.927,0.778,5.428,2.337,7.504
		c0.424,0.566,1.723,1.464,3.894,2.691c1.038,0.613,1.558,1.604,1.558,2.973c0,0.85-0.366,1.582-1.098,2.195
		c-0.732,0.614-1.617,0.92-2.654,0.92c-2.361,0-4.508-0.943-6.443-2.832c-1.746-1.699-2.856-4.152-3.328-7.363
		C186.966,115.902,186.849,114.675,186.707,112.645z"/>
	<path fill="#EEF2F3" d="M234.883,77.882c-3.068,4.768-5.9,10.102-8.496,16.001c-3.729,8.402-5.594,14.68-5.594,18.833
		c0,1.181,0.248,2.077,0.744,2.69c0.495,0.614,1.238,0.92,2.23,0.92c2.359,0,5.215-2.218,8.566-6.654
		c2.124-2.737,4.012-5.476,5.664-8.213c0.896-1.559,1.864-2.337,2.902-2.337c0.613,0,1.133,0.212,1.559,0.638
		c0.377,0.424,0.566,0.85,0.566,1.273c0,1.747-2.291,5.642-6.868,11.683c-5.476,7.27-10.479,10.903-15.01,10.903
		c-2.407,0-4.414-1.108-6.019-3.328c-0.99-1.416-1.486-3.421-1.486-6.018c0-5.711,1.652-12.366,4.956-19.966
		c0.802-1.888,3.021-6.442,6.655-13.665c-1.274,0.331-2.242,0.496-2.902,0.496c-0.992,0-1.865-0.235-2.62-0.708
		c-1.038-0.66-1.558-1.487-1.558-2.478c0-1.18,0.684-2.125,2.053-2.832c0.378-0.188,2.125-0.496,5.24-0.921
		c1.133-0.188,2.784-0.638,4.955-1.345c1.652-2.975,4.343-7.01,8.072-12.107c2.076-2.832,3.516-4.673,4.318-5.522
		c1.133-1.18,2.124-1.771,2.974-1.771c0.612,0,1.228,0.331,1.841,0.992c0.566,0.613,0.85,1.228,0.85,1.84
		c0,1.229-1.322,3.659-3.965,7.293c-1.746,2.36-3.045,4.272-3.895,5.734c5.24-1.416,8.992-2.123,11.258-2.123
		c2.596,0,3.895,1.086,3.895,3.256c0,1.087-0.449,1.889-1.346,2.408c-0.473,0.283-1.699,0.52-3.682,0.707
		c-0.803-0.046-4.366,0.85-10.691,2.691C238.305,76.773,236.582,77.315,234.883,77.882z"/>
</g>
</svg>
