<?xml version="1.0" encoding="utf-8"?>
<!-- Generator: Adobe Illustrator 16.0.0, SVG Export Plug-In . SVG Version: 6.00 Build 0)  -->
<!DOCTYPE svg PUBLIC "-//W3C//DTD SVG 1.1//EN" "http://www.w3.org/Graphics/SVG/1.1/DTD/svg11.dtd">
<svg version="1.1" id="圖層_1" xmlns="http://www.w3.org/2000/svg" xmlns:xlink="http://www.w3.org/1999/xlink" x="0px" y="0px"
	 width="284px" height="155.5px" viewBox="0 0 284 155.5" enable-background="new 0 0 284 155.5" xml:space="preserve">
<g enable-background="new    ">
	<path fill="#EEF2F3" d="M21.93,120.787c2.737-3.587,5.168-7.032,7.292-10.337c1.227-1.935,4.46-7.222,9.7-15.859l6.018-9.841
		c4.436-7.269,7.387-11.918,8.85-13.948c2.407-3.445,4.79-5.169,7.151-5.169c1.699,0,2.549,0.662,2.549,1.982
		c0,0.897-0.331,2.03-0.991,3.398c-0.472,0.945-1.794,4.226-3.965,9.842c-2.171,5.712-3.848,12.084-5.027,19.116
		c-0.85,5.004-1.274,9.274-1.274,12.815c0,1.038,0.059,2.184,0.177,3.434c0.117,1.251,0.294,2.632,0.531,4.142
		c1.887-2.359,3.965-5.758,6.23-10.195c2.17-4.437,5.522-11.493,10.054-21.169c4.294-9.251,9.321-18.856,15.081-28.816
		c4.719-8.213,10.36-16.52,16.921-24.922c3.068-3.965,5.522-5.947,7.363-5.947c0.802,0,1.533,0.401,2.195,1.203
		c0.471,0.566,0.708,1.204,0.708,1.912c0,0.944-1.463,3.281-4.39,7.01c-5.759,7.316-11.257,15.411-16.497,24.284
		c-5.995,10.29-13.5,24.922-22.515,43.896c-4.012,8.496-7.08,14.538-9.204,18.125c-2.219,3.682-4.768,5.522-7.646,5.522
		c-2.455,0-4.295-1.074-5.522-3.222c-1.228-2.147-1.841-5.345-1.841-9.593c0-6.844,1.133-15.316,3.398-25.418
		c-2.219,2.785-4.814,6.727-7.788,11.824c-2.219,3.776-4.366,7.41-6.443,10.902c-3.021,5.052-5.027,8.45-6.018,10.195
		c-1.511,2.691-3.069,4.814-4.673,6.373c-1.18,1.133-2.573,1.699-4.177,1.699c-1.936,0-3.328-0.827-4.177-2.479
		c-0.614-1.133-0.92-2.525-0.92-4.178c0-11.232,5.9-31.364,17.7-60.393c5.758-14.207,9.109-22.915,10.054-26.125
		c0.85-3.115,1.699-5.098,2.549-5.947c1.133-1.228,2.454-1.842,3.965-1.842c2.077,0,3.115,0.992,3.115,2.975
		c0,2.406-0.897,6.065-2.69,10.974c-2.03,5.57-5.287,13.452-9.771,23.647c-3.069,7.033-5.239,12.296-6.514,15.789
		C25.729,103.819,22.543,115.265,21.93,120.787z"/>
	<path fill="#EEF2F3" d="M117.967,77.811c3.87,0,5.806,2.361,5.806,7.08c0,6.278-2.903,14.231-8.708,23.86
		c-6.326,10.432-12.438,15.647-18.337,15.647c-2.737,0-4.744-1.275-6.018-3.824c-0.661-1.273-0.991-2.808-0.991-4.602
		c0-6.041,2.078-12.603,6.23-19.683c3.87-6.561,8.425-11.658,13.665-15.293C112.681,78.873,115.465,77.811,117.967,77.811z
		 M110.604,104.574c-1.18-0.944-1.77-1.676-1.77-2.195c0-0.377,0.754-1.416,2.266-3.115c4.248-4.767,6.372-8.613,6.372-11.541
		c0-0.377-0.118-0.754-0.354-1.133c-0.378-0.707-0.968-1.062-1.77-1.062c-1.511,0-3.729,1.464-6.655,4.39
		c-3.777,3.776-6.655,7.671-8.638,11.682c-2.313,4.579-3.469,8.379-3.469,11.399c0,0.803,0.212,1.511,0.637,2.124
		c0.613,0.85,1.392,1.274,2.336,1.274c2.266,0,4.696-1.699,7.292-5.098c1.133-1.416,2.053-2.879,2.761-4.39
		C110.321,105.4,110.65,104.621,110.604,104.574z"/>
	<path fill="#EEF2F3" d="M141.504,100.184c4.625-4.955,9.958-9.793,16.001-14.514c2.17-1.699,4.483-3.28,6.938-4.744
		c1.228-0.707,2.006-1.062,2.337-1.062c0.708,0,1.416,0.52,2.124,1.558c0.425,0.566,0.637,1.086,0.637,1.558
		c0,0.85-0.896,2.007-2.689,3.47c-4.814,3.822-7.223,6.702-7.223,8.637c0,1.087,0.613,1.629,1.842,1.629
		c2.028,0,5.521-1.675,10.479-5.027c0.85-0.566,1.557-0.85,2.123-0.85c0.378,0,0.755,0.189,1.133,0.566
		c0.426,0.426,0.638,0.874,0.638,1.346c0,1.416-1.982,3.588-5.947,6.514c-4.153,3.115-8.096,4.673-11.823,4.673
		c-1.512,0-2.903-0.4-4.178-1.204c-1.086-0.66-1.629-1.84-1.629-3.539c0-1.18,0.496-2.525,1.487-4.036
		c-3.729,2.644-8.118,7.175-13.169,13.594c-2.927,3.965-5.83,8.851-8.708,14.655c-1.085,2.172-2.431,3.258-4.036,3.258
		c-1.746,0-2.62-0.826-2.62-2.479c0-1.604,1.37-5.899,4.106-12.886c4.059-10.384,8.307-18.432,12.744-24.144
		c2.737-3.539,5.027-5.31,6.868-5.31c0.612,0,1.179,0.189,1.699,0.566c0.612,0.473,0.921,1.062,0.921,1.771
		c0,0.707-0.473,1.699-1.416,2.973c-0.189,0.237-1.441,1.818-3.753,4.744C144.266,94.686,142.637,97.447,141.504,100.184z"/>
	<path fill="#EEF2F3" d="M206.318,93.175c-3.069,7.6-4.603,13.382-4.603,17.347c0,1.936,0.378,3.539,1.133,4.814
		c0.944,1.604,2.194,2.406,3.753,2.406c3.209,0,6.914-2.146,11.115-6.442c2.785-2.737,5.121-5.522,7.01-8.354
		c1.227-1.888,2.383-2.832,3.469-2.832s1.629,0.543,1.629,1.629c0,1.794-2.172,5.476-6.514,11.045
		c-6.42,8.26-12.65,12.39-18.691,12.39c-3.636,0-6.207-1.771-7.718-5.31c-1.133-2.596-1.699-5.334-1.699-8.213
		c0-2.408,0.566-5.971,1.699-10.691c-3.069,2.549-7.718,8.779-13.948,18.691c-1.651,2.69-3.161,4.035-4.531,4.035
		c-0.707,0-1.32-0.306-1.84-0.92c-0.52-0.66-0.779-1.321-0.779-1.982c0-1.888,2.479-8.188,7.434-18.904
		c8.732-18.737,18.078-34.503,28.037-47.295c5.381-6.984,10.219-12.082,14.515-15.293c3.87-2.926,6.962-4.389,9.274-4.389
		c1.038,0,1.959,0.424,2.762,1.273c1.037,1.039,1.558,2.313,1.558,3.824c0,4.012-2.101,9.157-6.302,15.434
		c-4.389,6.468-11.848,14.279-22.373,23.436c-5.9,5.098-11.211,9.11-15.93,12.036c-0.613,1.228-2.336,4.814-5.168,10.762
		c5.899-6.372,10.572-10.762,14.018-13.169c2.219-1.51,5.215-3.091,8.992-4.744c2.549-1.085,4.39-1.628,5.522-1.628
		c0.612,0,1.156,0.236,1.628,0.708c0.52,0.425,0.779,0.991,0.779,1.699c0,1.558-1.063,2.644-3.186,3.257
		C213.775,88.88,210.094,90.674,206.318,93.175z M200.229,80.997c7.741-5.098,14.963-11.587,21.666-19.47
		c3.351-3.918,6.041-7.693,8.07-11.328c1.416-2.549,2.125-4.366,2.125-5.452c0-1.085-0.496-1.628-1.487-1.628
		c-2.644,0-7.198,4.06-13.665,12.178C211.604,62.047,206.035,70.613,200.229,80.997z"/>
	<path fill="#EEF2F3" d="M265.68,76.466c2.927,0,5.121,0.52,6.585,1.558c1.463,1.039,2.194,2.619,2.194,4.744
		c0,2.785-1.038,5.476-3.115,8.07c-1.982,2.455-4.955,4.438-8.92,5.947c-2.172,0.804-3.99,1.204-5.452,1.204
		c-1.982,0-2.974-0.873-2.974-2.62c0-1.179,0.566-2.076,1.699-2.689c0.283-0.143,1.887-0.543,4.814-1.204
		c1.746-0.377,3.351-1.204,4.814-2.478c1.274-1.086,1.912-2.266,1.912-3.541c0-0.99-0.283-1.722-0.85-2.194
		c-0.566-0.472-1.416-0.708-2.549-0.708c-2.738,0-5.76,1.109-9.063,3.328c-3.824,2.502-5.735,5.476-5.735,8.92
		c0,2.455,1.25,5.523,3.753,9.205c2.784,4.012,4.177,7.41,4.177,10.195c0,4.153-1.841,7.41-5.522,9.77
		c-2.266,1.464-4.839,2.195-7.717,2.195c-4.531,0-7.977-1.629-10.338-4.885c-1.651-2.313-2.478-5.051-2.478-8.213
		c0-3.682,0.944-6.773,2.832-9.275c1.228-1.651,2.503-2.479,3.823-2.479c1.18,0,1.77,0.473,1.77,1.416
		c0,0.379-0.212,0.945-0.637,1.699c-1.086,2.03-1.629,4.414-1.629,7.151c0,2.313,0.826,4.272,2.479,5.876
		c1.463,1.416,3.139,2.125,5.027,2.125c1.84,0,3.279-0.613,4.318-1.842c0.85-1.037,1.274-2.359,1.274-3.965
		c0-1.982-1.133-4.554-3.398-7.717c-3.115-4.342-4.673-8.283-4.673-11.824c0-4.719,2.572-8.896,7.717-12.531
		C254.823,78.213,260.11,76.466,265.68,76.466z"/>
</g>
</svg>
